<svg xmlns="http://www.w3.org/2000/svg" xmlns:xlink="http://www.w3.org/1999/xlink" viewBox="0 0 1067.84891 196.6556"><defs><style>.e2ac3bdb-ff31-4a1e-8e3d-0984491aafa8{fill:none;}.e49da096-dfc7-4289-90b4-d7cddd3ca44b{clip-path:url(#bf7bb532-7a05-4ff8-b434-0442e43ce541);}.ad1553ed-47be-44c2-9bb2-fbea8ece0c62{fill:#fff;}.f011d61d-ccc2-4618-97d4-f72d016a60d9{fill:url(#a4429082-28e4-408d-8267-ccc107a3eca6);}.eaa948eb-b8cd-494d-9af3-f18ea67326cb{fill:url(#e875db56-8bb8-4d30-a678-80a91929ea6a);}.fe66541a-0622-49b4-9e5f-80381e53e76d{fill:url(#b6ffb82f-7751-4872-aff0-f45923f12cae);}.e133563f-e17d-4985-aeb2-28a02c6c86b0{fill:url(#fac9be5b-21ef-45a3-a6a1-4819f730ee42);}.e5320637-d62c-4b4f-91c1-441d34971ba0{fill:url(#ea58f558-dc4d-4fd8-8a7d-e5e190e085c7);}.b503b986-dff4-4374-a11f-3571090c76fd{fill:url(#ae91677e-484b-4b40-a7f9-6162773b6f53);}.eba76c92-1df3-4138-816b-ca0563e22eed{fill:url(#ae383c71-f5fe-41c1-8cf3-f233690281c1);}.f0065a2b-ad5a-463d-8331-657ea43a2ad5{fill:url(#f0136141-8c5e-48c0-8b82-af3c740f6bd7);}.b1630494-6502-4d9e-9cfc-674840d7a697{fill:url(#f4fd282c-de9b-45b5-bc9d-4370f6ce71aa);}.f310b059-6cc8-4b89-bbd9-920e982e272d{fill:url(#b19e2e85-741b-4128-987b-1387dea3bcfc);}.a3374117-5caf-4eab-86c5-115e2aba330e{fill:url(#a59294bf-0198-4280-9303-2842ea2a6f1d);}</style><clipPath id="bf7bb532-7a05-4ff8-b434-0442e43ce541" transform="translate(0.03779)"><path class="e2ac3bdb-ff31-4a1e-8e3d-0984491aafa8" d="M153.5344,22.22381A22.21563,22.21563,0,0,0,116.98567,5.24223c-.0216.0216-.0398.02474-.05958.04316-34.533,32.02977-81.65045,22.07486-87.488,21.33087a27.95532,27.95532,0,0,0-6.55454-.90693C10.50562,25.70933.27287,36.21684.27287,48.58926c0,5.3177,2.50561,10.44163,5.21435,14.64147,15.17328,23.52587,9.89006,38.22,2.01879,49.47806a41.51421,41.51421,0,0,0-4.73123,6.82069A21.90572,21.90572,0,0,0,.00753,130.6981a21.44946,21.44946,0,0,0,20.355,20.61561,20.77513,20.77513,0,0,0,14.71757-5.05565c2.19387-1.83721,2.969-2.46789,3.26266-2.689,22.49488-16.938,48.03741,1.50612,48.47754,1.76107l.011.00009c6.073,3.72008,10.46227,6.06238,16.54809,6.00179a21.63356,21.63356,0,0,0,21.51014-22.03119c0-.65466-.04348-1.29839-.09215-1.93145-.01067-.34073-.30573-2.21944-.40554-2.73733-10.55938-54.78738,17.18148-79.88173,23.23506-87.331.44383-.47609.86578-.97379,1.27132-1.4879a.13023.13023,0,0,1,.04348-.0432l-.01094-.01067a22.148,22.148,0,0,0,4.60369-13.53544M90.33674,114.18016A37.87716,37.87716,0,1,1,35.54577,61.867c28.48276-29.85142,87.32558-30.36553,87.32558-30.36553S115.09743,88.251,90.33674,114.18016Z"/></clipPath><linearGradient id="a4429082-28e4-408d-8267-ccc107a3eca6" x1="153.67436" y1="85.69591" x2="280.42958" y2="85.69591" gradientUnits="userSpaceOnUse"><stop offset="0.14525" stop-color="#fff"/><stop offset="0.85968" stop-color="#fff"/></linearGradient><linearGradient id="e875db56-8bb8-4d30-a678-80a91929ea6a" x1="495.64164" y1="85.69591" x2="622.39673" y2="85.69591" xlink:href="#a4429082-28e4-408d-8267-ccc107a3eca6"/><linearGradient id="b6ffb82f-7751-4872-aff0-f45923f12cae" x1="279.47336" y1="129.36322" x2="366.63068" y2="129.36322" xlink:href="#a4429082-28e4-408d-8267-ccc107a3eca6"/><linearGradient id="fac9be5b-21ef-45a3-a6a1-4819f730ee42" x1="380.04943" y1="106.70428" x2="454.70005" y2="106.70428" xlink:href="#a4429082-28e4-408d-8267-ccc107a3eca6"/><linearGradient id="ea58f558-dc4d-4fd8-8a7d-e5e190e085c7" x1="807.03943" y1="106.70428" x2="881.68979" y2="106.70428" xlink:href="#a4429082-28e4-408d-8267-ccc107a3eca6"/><linearGradient id="ae91677e-484b-4b40-a7f9-6162773b6f53" x1="463.38546" y1="106.08971" x2="485.00016" y2="106.08971" xlink:href="#a4429082-28e4-408d-8267-ccc107a3eca6"/><linearGradient id="ae383c71-f5fe-41c1-8cf3-f233690281c1" x1="463.38546" y1="36.97244" x2="485.00016" y2="36.97244" xlink:href="#a4429082-28e4-408d-8267-ccc107a3eca6"/><linearGradient id="f0136141-8c5e-48c0-8b82-af3c740f6bd7" x1="882.76483" y1="84.30038" x2="972.54188" y2="84.30038" xlink:href="#a4429082-28e4-408d-8267-ccc107a3eca6"/><linearGradient id="f4fd282c-de9b-45b5-bc9d-4370f6ce71aa" x1="979.44497" y1="106.35256" x2="1067.81112" y2="106.35256" xlink:href="#a4429082-28e4-408d-8267-ccc107a3eca6"/><linearGradient id="b19e2e85-741b-4128-987b-1387dea3bcfc" x1="710.5051" y1="106.35256" x2="798.87125" y2="106.35256" xlink:href="#a4429082-28e4-408d-8267-ccc107a3eca6"/><linearGradient id="a59294bf-0198-4280-9303-2842ea2a6f1d" x1="624.97115" y1="107.22217" x2="704.73188" y2="107.22217" xlink:href="#a4429082-28e4-408d-8267-ccc107a3eca6"/></defs><title>Recurso 5</title><g id="e7edb361-860d-4af8-9108-befd33c75671" data-name="Capa 2"><g id="efdebae7-ba26-4050-b6e3-c53e0b5717bd" data-name="Capa 1"><g class="e49da096-dfc7-4289-90b4-d7cddd3ca44b"><rect class="ad1553ed-47be-44c2-9bb2-fbea8ece0c62" width="153.53678" height="151.71389"/></g><path class="f011d61d-ccc2-4618-97d4-f72d016a60d9" d="M224.392,25.98512a10.74729,10.74729,0,0,0-9.42527-5.754h-.1663a10.60572,10.60572,0,0,0-9.23745,6.10279l-50.90565,110.0016a10.31894,10.31894,0,0,0,5.05616,13.77312,9.49694,9.49694,0,0,0,4.3587,1.052,10.45223,10.45223,0,0,0,9.41451-6.103l12.5491-27.02532a2.557,2.557,0,0,0,1.22377.17714h59.78864l13.5958,27.19179a10.42084,10.42084,0,0,0,13.95548,4.53011,10.24029,10.24029,0,0,0,4.7076-13.9448ZM195.62769,97.28161,215.32637,54.755l21.27136,42.52665Z" transform="translate(0.03779)"/><path class="eaa948eb-b8cd-494d-9af3-f18ea67326cb" d="M566.35906,25.98512a10.74688,10.74688,0,0,0-9.42527-5.754h-.16629A10.60615,10.60615,0,0,0,547.53,26.33394l-50.9053,110.0016a10.31865,10.31865,0,0,0,5.05616,13.77312,9.49448,9.49448,0,0,0,4.35835,1.052,10.45187,10.45187,0,0,0,9.41452-6.103l12.54944-27.02532a2.55548,2.55548,0,0,0,1.22342.17714h59.78864l13.59615,27.19179a10.42084,10.42084,0,0,0,13.95548,4.53011,10.24015,10.24015,0,0,0,4.70725-13.9448ZM537.59478,97.28161,557.29346,54.755l21.27135,42.52665Z" transform="translate(0.03779)"/><path class="fe66541a-0622-49b4-9e5f-80381e53e76d" d="M356.00316,62.07084a10.93477,10.93477,0,0,0-10.11788,7.32664,42.37258,42.37258,0,0,0-22.6562-6.44639,43.57888,43.57888,0,1,0,22.141,81.06008v7.6594a23.44168,23.44168,0,0,1-23.53628,23.54721,23.04873,23.04873,0,0,1-17.77745-8.02983,10.39375,10.39375,0,0,0-14.99143-1.036c-4.54061,3.65534-4.88431,10.45055-1.229,14.98613a44.8614,44.8614,0,0,0,78.79472-29.46756V72.69845A10.676,10.676,0,0,0,356.00316,62.07084Zm-32.77408,66.76629a22.31335,22.31335,0,1,1,22.141-22.3073A22.353,22.353,0,0,1,323.22908,128.83713Z" transform="translate(0.03779)"/><path class="e133563f-e17d-4985-aeb2-28a02c6c86b0" d="M422.59248,63.64352a42.17174,42.17174,0,0,0-22.141,6.44639,10.47456,10.47456,0,0,0-20.402,3.14535v66.75553a10.464,10.464,0,1,0,20.928,0V107.04512c0-12.372,9.75821-22.48983,21.615-22.48983a21.05436,21.05436,0,0,1,14.46512,5.75935,10.47993,10.47993,0,0,0,14.82513-.526,10.25926,10.25926,0,0,0-.526-14.63722A41.97511,41.97511,0,0,0,422.59248,63.64352Z" transform="translate(0.03779)"/><path class="e5320637-d62c-4b4f-91c1-441d34971ba0" d="M849.58213,63.64352a42.17145,42.17145,0,0,0-22.14066,6.44639,10.47456,10.47456,0,0,0-20.402,3.14535v66.75553a10.46383,10.46383,0,1,0,20.92765,0V107.04512c0-12.372,9.75821-22.48983,21.615-22.48983a21.05458,21.05458,0,0,1,14.46547,5.75935,10.47993,10.47993,0,0,0,14.82513-.526,10.25987,10.25987,0,0,0-.526-14.63722A41.97661,41.97661,0,0,0,849.58213,63.64352Z" transform="translate(0.03779)"/><path class="b503b986-dff4-4374-a11f-3571090c76fd" d="M474.35667,61.72194a10.74777,10.74777,0,0,0-10.97121,10.633v67.29243a10.80735,10.80735,0,1,0,21.6147,0V72.35492A10.68036,10.68036,0,0,0,474.35667,61.72194Z" transform="translate(0.03779)"/><path class="eba76c92-1df3-4138-816b-ca0563e22eed" d="M474.35667,25.81874a10.77475,10.77475,0,0,0-10.97121,10.79937v.86957a10.80867,10.80867,0,0,0,21.6147,0v-.86957A10.70985,10.70985,0,0,0,474.35667,25.81874Z" transform="translate(0.03779)"/><path class="f0065a2b-ad5a-463d-8331-657ea43a2ad5" d="M961.914,18.14328a10.645,10.645,0,0,0-10.46678,10.6329V69.56386a45.79388,45.79388,0,0,0-24.583-7.31587,44.10475,44.10475,0,0,0,0,88.20949,43.47977,43.47977,0,0,0,24.93224-7.67555,10.63761,10.63761,0,0,0,20.7454-3.13458V28.77618A10.67732,10.67732,0,0,0,961.914,18.14328Zm-35.04977,111.2199a23.01049,23.01049,0,1,1,23.02143-23.01049A22.97825,22.97825,0,0,1,926.86424,129.36318Z" transform="translate(0.03779)"/><path class="b1630494-6502-4d9e-9cfc-674840d7a697" d="M1023.60756,62.16909a44.18347,44.18347,0,1,0,44.20356,44.18412A44.12158,44.12158,0,0,0,1023.60756,62.16909Zm.00972,67.19392a23.01045,23.01045,0,1,1,23.02074-23.0098A22.97807,22.97807,0,0,1,1023.61728,129.363Z" transform="translate(0.03779)"/><path class="f310b059-6cc8-4b89-bbd9-920e982e272d" d="M754.66769,62.16909a44.18347,44.18347,0,1,0,44.20356,44.18412A44.1218,44.1218,0,0,0,754.66769,62.16909Zm.00972,67.19392a23.01045,23.01045,0,1,1,23.02108-23.0098A22.97807,22.97807,0,0,1,754.67741,129.363Z" transform="translate(0.03779)"/><path class="a3374117-5caf-4eab-86c5-115e2aba330e" d="M647.22707,99.25978a23.10634,23.10634,0,0,1,21.3335-15.04741c5.57656,0,13.77841,2.26458,18.30341,6.623a10.472,10.472,0,0,0,14.81367-.17679,10.3175,10.3175,0,0,0-.16595-14.81455c-9.59156-9.24335-23.01066-12.3782-32.95113-12.3782a43.35809,43.35809,0,0,0-40.7777,28.369c-.03646.09747-.08089.19008-.11631.28763-.17427.479-.31279.975-.47041,1.46253a43.63685,43.63685,0,0,0,41.36442,57.39353c9.94047,0,23.35957-3.13476,32.95113-12.3782a10.31607,10.31607,0,0,0,.16595-14.81333A10.4708,10.4708,0,0,0,686.864,123.609c-4.525,4.35844-12.72685,6.62414-18.30341,6.62414a22.987,22.987,0,0,1-22.78918-22.90252,23.08272,23.08272,0,0,1,1.37826-7.86978C647.1743,99.39257,647.20208,99.32678,647.22707,99.25978Z" transform="translate(0.03779)"/></g></g></svg>